<?xml version="1.0" encoding="UTF-8" standalone="no"?>
<svg
   xmlns:dc="http://purl.org/dc/elements/1.1/"
   xmlns:cc="http://creativecommons.org/ns#"
   xmlns:rdf="http://www.w3.org/1999/02/22-rdf-syntax-ns#"
   xmlns:svg="http://www.w3.org/2000/svg"
   xmlns="http://www.w3.org/2000/svg"
   xmlns:sodipodi="http://sodipodi.sourceforge.net/DTD/sodipodi-0.dtd"
   xmlns:inkscape="http://www.inkscape.org/namespaces/inkscape"
   viewBox="0 0 699.99996 700"
   version="1.1"
   id="svg21"
   sodipodi:docname="eduzz-logo.svg"
   width="700"
   height="700"
   inkscape:export-filename="C:\Users\suitedoalex\sites\eduzz-logo-0.png"
   inkscape:export-xdpi="561.73999"
   inkscape:export-ydpi="561.73999"
   inkscape:version="0.92.4 (5da689c313, 2019-01-14)">
  <metadata
     id="metadata25">
    <rdf:RDF>
      <cc:Work
         rdf:about="">
        <dc:format>image/svg+xml</dc:format>
        <dc:type
           rdf:resource="http://purl.org/dc/dcmitype/StillImage" />
        <dc:title></dc:title>
      </cc:Work>
    </rdf:RDF>
  </metadata>
  <sodipodi:namedview
     pagecolor="#ffffff"
     bordercolor="#666666"
     borderopacity="1"
     objecttolerance="10"
     gridtolerance="10"
     guidetolerance="10"
     inkscape:pageopacity="0"
     inkscape:pageshadow="2"
     inkscape:window-width="1600"
     inkscape:window-height="837"
     id="namedview23"
     showgrid="false"
     inkscape:zoom="0.41771665"
     inkscape:cx="-175.37883"
     inkscape:cy="401.32906"
     inkscape:window-x="-8"
     inkscape:window-y="-8"
     inkscape:window-maximized="1"
     inkscape:current-layer="svg21" />
  <defs
     id="defs5">
    <clipPath
       id="a">
      <path
         d="M 105.3,144.5 A 22.5,22.5 0 1 1 82.8,122 a 22.514,22.514 0 0 1 22.5,22.5 z"
         transform="translate(-60.3,-122)"
         id="path2"
         inkscape:connector-curvature="0" />
    </clipPath>
  </defs>
  <g
     transform="matrix(3.8195615,0,0,3.8195615,2998.1975,-1147.2681)"
     id="g19"
     inkscape:export-filename="C:\Users\suitedoalex\sites\eduzz-logo-4.png"
     inkscape:export-xdpi="70.933205"
     inkscape:export-ydpi="70.933205">
    <path
       d="M 105.3,144.5 A 22.5,22.5 0 1 1 82.8,122 a 22.514,22.514 0 0 1 22.5,22.5 z"
       transform="translate(-824.3,247.5)"
       id="path7"
       inkscape:connector-curvature="0"
       style="fill:#ffcd33" />
    <g
       transform="translate(-764,369.5)"
       clip-path="url(#a)"
       id="g11">
      <path
         d="m 79.346,134.579 a 4.15,4.15 0 0 1 -4.179,4.179 H 48.73 a 4.179,4.179 0 1 1 0,-8.357 h 26.438 a 4.2,4.2 0 0 1 4.178,4.178 z m -7.232,11.25 a 4.15,4.15 0 0 1 -4.179,4.179 H 41.579 a 4.179,4.179 0 1 1 0,-8.357 h 26.437 a 4.133,4.133 0 0 1 4.098,4.178 z M 79.346,157 a 4.15,4.15 0 0 1 -4.179,4.179 H 48.73 a 4.179,4.179 0 0 1 0,-8.357 H 75.168 A 4.255,4.255 0 0 1 79.346,157 Z"
         transform="translate(-55.802,-123.65)"
         id="path9"
         inkscape:connector-curvature="0"
         style="fill:#ffffff" />
    </g>
    <g
       transform="translate(-711.045,378.5)"
       id="g17">
      <g
         id="g15">
        <path
           d="m 142.593,150.214 c -0.161,1.366 -0.562,1.768 -1.929,1.768 h -10.527 v 0.8 c 0,2.732 1.607,3.857 5.384,3.857 a 21.358,21.358 0 0 0 4.9,-0.562 c 1.205,-0.321 1.527,0 1.527,1.286 v 0.482 c 0,1.205 -0.241,1.527 -1.527,1.848 a 19.083,19.083 0 0 1 -4.9,0.563 c -6.348,0 -9.321,-2.411 -9.321,-8.116 v -3.295 q 0,-8.2 8.438,-8.2 c 5.3,0 8.036,2.652 8.036,7.795 -0.001,0.649 -0.081,1.212 -0.081,1.774 z m -12.455,-1.446 h 8.839 V 147.8 c 0,-2.491 -1.446,-3.777 -4.42,-3.777 -2.893,0 -4.339,1.205 -4.339,3.777 z m 31.661,3.455 c 0,5.384 -3.214,8.116 -8.6,8.116 -5.786,0 -8.679,-2.652 -8.679,-8.116 v -3.214 c 0,-5.464 2.652,-8.277 7.955,-8.277 2.652,0 4.5,0.8 5.545,2.491 v -8.036 c 0,-1.366 0.321,-1.687 1.688,-1.687 h 0.482 c 1.366,0 1.688,0.321 1.688,1.688 z m -13.42,-0.08 c 0,3.214 0.964,4.5 4.741,4.5 3.777,0 4.821,-1.366 4.821,-4.5 v -3.214 c 0,-3.214 -1.125,-4.5 -4.821,-4.5 -3.696,0 -4.741,1.366 -4.741,4.5 z m 19.607,0.8 c 0,2.571 0.964,3.7 4.339,3.7 3.375,0 4.259,-1.125 4.259,-3.7 v -10.122 c 0,-1.366 0.321,-1.688 1.688,-1.688 h 0.482 c 1.366,0 1.688,0.321 1.688,1.688 v 10.125 c 0,4.9 -2.491,7.393 -8.2,7.393 -5.464,0 -8.277,-2.491 -8.277,-7.393 v -10.125 c 0,-1.366 0.321,-1.688 1.688,-1.688 h 0.482 c 1.366,0 1.688,0.321 1.688,1.688 l 0.161,10.125 z m 15.348,-10.286 c 0,-1.205 0.321,-1.527 1.527,-1.527 h 8.679 c 3.214,0 4.339,1.045 4.339,3.857 0,2.009 -0.562,3.054 -2.893,4.5 l -8.437,5.143 c -0.562,0.321 -0.8,0.643 -0.8,1.045 0,0.482 0.4,0.643 1.205,0.643 h 9.4 c 1.205,0 1.527,0.321 1.527,1.527 v 0.482 c 0,1.205 -0.321,1.527 -1.527,1.527 h -9.8 q -4.339,0 -4.339,-3.857 a 5.1,5.1 0 0 1 2.893,-4.5 l 8.357,-5.143 c 0.563,-0.4 0.884,-0.723 0.884,-1.045 0,-0.4 -0.4,-0.643 -1.205,-0.643 h -8.364 c -1.205,0 -1.527,-0.321 -1.527,-1.527 z m 16.714,0 c 0,-1.205 0.321,-1.527 1.527,-1.527 h 8.679 c 3.214,0 4.339,1.045 4.339,3.857 0,2.009 -0.562,3.054 -2.893,4.5 l -8.437,5.143 c -0.562,0.321 -0.8,0.643 -0.8,1.045 0,0.482 0.4,0.643 1.205,0.643 h 9.4 c 1.205,0 1.527,0.321 1.527,1.527 v 0.482 c 0,1.205 -0.321,1.527 -1.527,1.527 h -9.8 q -4.339,0 -4.339,-3.857 a 5.1,5.1 0 0 1 2.893,-4.5 l 8.357,-5.143 c 0.562,-0.4 0.884,-0.723 0.884,-1.045 0,-0.4 -0.4,-0.643 -1.205,-0.643 h -8.357 c -1.205,0 -1.527,-0.321 -1.527,-1.527 l 0.08,-0.482 z"
           transform="translate(-126.2,-133.5)"
           id="path13"
           inkscape:connector-curvature="0"
           style="fill:#242424" />
      </g>
    </g>
  </g>
</svg>
