<?xml version="1.0" encoding="utf-8"?>
<!-- Generator: Adobe Illustrator 26.1.0, SVG Export Plug-In . SVG Version: 6.00 Build 0)  -->
<svg version="1.1" id="Camada_1" xmlns="http://www.w3.org/2000/svg" xmlns:xlink="http://www.w3.org/1999/xlink" x="0px" y="0px"
	 viewBox="0 0 1034 112" style="enable-background:new 0 0 1034 112;" xml:space="preserve">
<style type="text/css">
	.st0{fill:#F8F8F8;}
</style>
<g id="Camada_2_00000030479145584194797210000013115731594029393839_">
	<g id="Camada_4">
		<path class="st0" d="M131.8,64L131.8,64z"/>
		<path class="st0" d="M479.7,54l10,10l28,28l10.3,10.3c2.6,2.6,4,6,4,9.7h-20.3l-48-48H431V44h32.7l44-44H532
			c0,1.1-0.4,2.1-1.2,2.8L479.7,54z"/>
		<rect x="185" y="0" class="st0" width="18" height="112"/>
		<path class="st0" d="M237.1,54c0,0.7-0.1,1.3-0.1,2c0,19.9,16.1,36,36,36h91v20h-91c-30.9,0-56-25.1-56-56c0-0.7,0-1.3,0-2
			c1.1-30.1,25.8-54,56-54h91v20h-91C253.9,20,238.1,34.9,237.1,54z"/>
		<rect x="389" y="0" class="st0" width="18" height="112"/>
		<path class="st0" d="M675,92v20H569.8c-8.7,0-15.8-7.1-15.8-15.8V0h18v87c0,2.8,2.2,5,5,5H675z"/>
		<path class="st0" d="M717,66.9v22.3c0,1.6,1.3,2.9,2.8,2.9c0,0,0,0,0,0H848v20H711.6c-7,0-12.6-5.6-12.6-12.6V56.6
			c0-7,5.6-12.6,12.6-12.6H848v20H719.9C718.3,64,717,65.3,717,66.9C717,66.8,717,66.9,717,66.9z"/>
		<path class="st0" d="M1025.8,54c-0.2-0.2-0.4-0.4-0.6-0.6c12.1-12.5,11.7-32.5-0.8-44.5c-5.9-5.7-13.7-8.8-21.9-8.8H874v112h18V64
			h116.3c4.2,0,7.7,3.4,7.7,7.7c0,0,0,0,0,0V112h18V75C1034,67.2,1031.1,59.7,1025.8,54z M1004,44H892V20h112c6.6,0,12,5.4,12,12
			S1010.6,44,1004,44z"/>
		<path class="st0" d="M160.7,20C155.8,7.9,144,0,131,0H0v112h18V64h113.8c17.7-0.4,31.6-15.1,31.2-32.8
			C162.9,27.4,162.1,23.6,160.7,20L160.7,20z M131,44H18V20h113c6.6,0,12,5.4,12,12S137.6,44,131,44z"/>
		<rect x="732" y="0" class="st0" width="116" height="20"/>
	</g>
</g>
</svg>
